<svg width="20" height="20" viewBox="0 0 20 20" fill="none" xmlns="http://www.w3.org/2000/svg">
<path d="M13.85 2.49169C13.4417 2.08335 12.7834 2.08335 12.375 2.49169L5.45002 9.41669C5.37277 9.49378 5.31148 9.58536 5.26966 9.68617C5.22784 9.78698 5.20632 9.89505 5.20632 10.0042C5.20632 10.1133 5.22784 10.2214 5.26966 10.3222C5.31148 10.423 5.37277 10.5146 5.45002 10.5917L12.375 17.5167C12.7834 17.925 13.4417 17.925 13.85 17.5167C14.2584 17.1084 14.2584 16.45 13.85 16.0417L7.81669 10L13.8584 3.95835C14.2584 3.55835 14.2584 2.89169 13.85 2.49169Z" fill="#121B20"/>
</svg>
