<svg width="25" height="25" viewBox="0 0 25 25" fill="none" xmlns="http://www.w3.org/2000/svg">
<path d="M9.73917 4.66112L9.75392 4.69162L9.77264 4.71986C9.80455 4.76796 9.83164 4.81877 9.85363 4.87157C9.947 6.31066 10.0439 7.73916 10.1404 9.16087C10.2173 10.2955 10.294 11.4258 10.3684 12.5537C10.3661 12.8716 10.4172 13.1877 10.5196 13.4892L10.5243 13.503L10.5298 13.5166C10.8149 14.2184 11.5199 14.6559 12.2757 14.6163L12.2757 14.6163L12.2815 14.6159L20.4907 14.0899L20.5146 14.0993L20.5905 14.1048L20.7269 14.1146C20.9137 14.1412 21.0859 14.2276 21.2162 14.3598C21.3685 14.5143 21.4516 14.7191 21.4512 14.93C21.1327 19.4734 17.7978 23.2774 13.248 24.259C8.69219 25.2419 4.02791 23.1551 1.79654 19.1491L1.79655 19.149L1.79437 19.1452C1.13943 17.9935 0.725804 16.7255 0.577389 15.4156L0.57642 15.407L0.575158 15.3985C0.518692 15.0178 0.493972 14.6332 0.501238 14.2486L0.501301 14.2486L0.501325 14.2407C0.516343 9.40437 3.95906 5.21908 8.79243 4.18986C9.18615 4.1186 9.57291 4.31722 9.73917 4.66112ZM13.6197 0.500588L13.627 0.500807C19.097 0.664555 23.6585 4.62732 24.4975 9.91248L24.4963 9.9196L24.4959 9.95833L24.4946 10.091C24.4827 10.1851 24.4423 10.2755 24.3761 10.3498C24.2884 10.4484 24.1621 10.5105 24.0244 10.5193L24.0234 10.5194L14.4355 11.1517L14.3085 11.1542C14.1651 11.144 14.0295 11.0867 13.9243 10.992C13.794 10.8748 13.7224 10.7114 13.7231 10.5428L13.7232 10.5247L13.7219 10.5066L13.0778 1.09455V0.969189C13.0858 0.843021 13.1435 0.722586 13.242 0.634168L12.9114 0.265937L13.242 0.634167C13.3432 0.543329 13.479 0.494264 13.6197 0.500535L13.6197 0.500588Z" fill="#D8D8E9" stroke="#F5F5F5"/>
</svg>
