<svg width="25" height="27" viewBox="0 0 25 27" fill="none" xmlns="http://www.w3.org/2000/svg">
<path d="M20.4524 26.25H17.8723C17.4422 26.25 17.0298 26.08 16.7268 25.7777C16.4238 25.4755 16.2551 25.0659 16.2582 24.64V20.6267C16.2582 20.1348 16.0609 19.6629 15.7096 19.3151C15.3583 18.9672 14.8818 18.7718 14.385 18.7718H10.6032C9.56865 18.7718 8.72997 19.6023 8.72997 20.6267L20.4524 26.25ZM20.4524 26.25C21.6574 26.2531 22.8141 25.7812 23.6673 24.9385C24.5205 24.0959 25 22.9516 25 21.7584V10.3252C25 9.36135 24.5685 8.44704 23.8219 7.82862L20.4524 26.25ZM8.22997 20.6267V24.2785L8.19727 24.2893L8.19464 24.648C8.19021 25.2533 7.69202 25.75 7.0688 25.75H4.5476C2.30754 25.75 0.5 23.953 0.5 21.7467V10.3314C0.521161 9.50641 0.915539 8.73283 1.57682 8.22526L1.57688 8.22533L1.58436 8.21935L10.1612 1.37114L10.1681 1.36561L10.1748 1.35985C11.4738 0.245099 13.3939 0.210487 14.7331 1.27806L14.7346 1.27925L23.5071 8.21716C24.1373 8.74118 24.5 9.51308 24.5 10.3252V21.7584C24.5 22.8172 24.0746 23.8336 23.316 24.5828C22.5572 25.3322 21.5274 25.7527 20.4537 25.75H20.4524H17.8723C17.5738 25.75 17.2887 25.632 17.0799 25.4237C16.8713 25.2156 16.7561 24.9348 16.7582 24.6437V24.64V20.6267C16.7582 20.0006 16.507 19.4011 16.0614 18.9598C15.616 18.5187 15.0129 18.2718 14.385 18.2718H10.6032C9.29713 18.2718 8.22997 19.3215 8.22997 20.6267Z" fill="#732E84" stroke="#F5F5F5"/>
</svg>
