<svg width="19" height="21" viewBox="0 0 19 21" fill="none" xmlns="http://www.w3.org/2000/svg">
<path d="M7.37829 18.0291C7.89904 17.9189 11.0721 17.9189 11.5929 18.0291C12.0381 18.1319 12.5195 18.3722 12.5195 18.8967C12.4936 19.3961 12.2006 19.8388 11.7958 20.12C11.2709 20.5292 10.6549 20.7883 10.011 20.8817C9.65486 20.9278 9.30494 20.9289 8.96123 20.8817C8.31625 20.7883 7.70026 20.5292 7.17642 20.1189C6.77059 19.8388 6.47761 19.3961 6.45173 18.8967C6.45173 18.3722 6.93313 18.1319 7.37829 18.0291ZM9.54709 0.0833435C11.7139 0.0833435 13.9273 1.11149 15.2421 2.81737C16.0952 3.91581 16.4865 5.01319 16.4865 6.71907V7.16285C16.4865 8.47112 16.8323 9.24222 17.5932 10.1308C18.1699 10.7855 18.3542 11.6258 18.3542 12.5375C18.3542 13.4482 18.055 14.3127 17.4555 15.0145C16.6708 15.8559 15.5641 16.3931 14.4346 16.4864C12.7978 16.626 11.16 16.7435 9.5005 16.7435C7.83992 16.7435 6.20316 16.6732 4.56639 16.4864C3.43587 16.3931 2.32917 15.8559 1.54546 15.0145C0.946042 14.3127 0.645813 13.4482 0.645813 12.5375C0.645813 11.6258 0.831127 10.7855 1.40674 10.1308C2.19148 9.24222 2.51448 8.47112 2.51448 7.16285V6.71907C2.51448 4.96703 2.95137 3.82138 3.85102 2.69987C5.18859 1.06428 7.33264 0.0833435 9.45391 0.0833435H9.54709Z" fill="#F3F4F6"/>
</svg>
