<svg width="25" height="20" viewBox="0 0 25 20" fill="none" xmlns="http://www.w3.org/2000/svg">
<path d="M24.0711 12.0678L24.0717 12.0678C24.2122 12.0691 24.3263 12.1175 24.3983 12.1798C24.4657 12.2381 24.5 12.3095 24.5 12.3958V15.4081C24.5 17.654 22.6219 19.5 20.2732 19.5H16.3322C16.1872 19.5 16.0948 19.3897 16.0948 19.2836V16.7469C16.0948 15.964 15.4582 15.3661 14.6881 15.3661C13.9345 15.3661 13.2814 15.9597 13.2814 16.7469V19.2836C13.2814 19.3902 13.1885 19.5 13.0452 19.5H4.72679C2.38921 19.5 0.5 17.6543 0.5 15.4081V12.3958C0.5 12.3095 0.534332 12.2381 0.601712 12.1798C0.673736 12.1175 0.787837 12.0691 0.928302 12.0678L0.928892 12.0678C2.07626 12.0556 3.0266 11.1452 3.0266 9.99413C3.0266 8.83871 2.05382 8.02613 0.906673 8.02613C0.794388 8.02613 0.689848 7.98247 0.614356 7.90913C0.53929 7.83621 0.5 7.74132 0.5 7.64533V4.60364C0.5 2.36133 2.39489 0.5 4.73888 0.5H13.0452C13.1885 0.5 13.2814 0.609774 13.2814 0.716383V3.72284C13.2814 4.49403 13.9301 5.10364 14.6881 5.10364C15.4626 5.10364 16.0948 4.48975 16.0948 3.72284V0.716383C16.0948 0.6103 16.1872 0.5 16.3322 0.5H20.2732C22.622 0.5 24.5 2.34489 24.5 4.5919V7.55138C24.5 7.64737 24.4607 7.74225 24.3856 7.81518L24.734 8.17381L24.3856 7.81518C24.3102 7.88851 24.2056 7.93218 24.0933 7.93218C22.9388 7.93218 21.9734 8.84473 21.9734 9.99413C21.9734 11.1454 22.9252 12.0556 24.0711 12.0678ZM14.6881 6.6286C13.9301 6.6286 13.2814 7.2382 13.2814 8.00939V12.707C13.2814 13.4782 13.9301 14.0878 14.6881 14.0878C15.4626 14.0878 16.0948 13.4739 16.0948 12.707V8.00939C16.0948 7.24249 15.4626 6.6286 14.6881 6.6286Z" fill="#D8D8E9" stroke="#F5F5F5"/>
</svg>
