<svg width="17" height="18" viewBox="0 0 17 18" fill="none" xmlns="http://www.w3.org/2000/svg">
<path d="M0 9.40622C0 7.39653 1.56493 5.74689 3.52597 5.65427L3.7 5.65017H7.69167V10.7374C7.69167 11.102 7.975 11.3902 8.33333 11.3902C8.65417 11.3902 8.92598 11.148 8.96906 10.8268L8.975 10.7374V5.65017H12.9583C14.9417 5.65017 16.5711 7.24239 16.6626 9.24541L16.6667 9.42318V13.5523C16.6667 15.5702 15.1017 17.2201 13.1407 17.3127L12.9667 17.3168H3.70833C1.7169 17.3168 0.0950816 15.7166 0.00403168 13.7209L0 13.5438V9.40622ZM5.4585 3.53333C5.22365 3.30606 5.2023 2.94793 5.38819 2.69687L5.45017 2.625L7.87517 0.191667C8.00017 0.0666667 8.1585 0 8.3335 0C8.46683 0 8.60017 0.0426667 8.7079 0.123733L8.7835 0.191667L11.2085 2.625C11.3335 2.75 11.4002 2.91667 11.4002 3.075C11.4002 3.24167 11.3335 3.40833 11.2085 3.53333C10.9812 3.76061 10.6231 3.78127 10.372 3.59532L10.3002 3.53333L8.97517 2.2V5.65H7.69183V2.2L6.36683 3.53333C6.11683 3.78333 5.7085 3.78333 5.4585 3.53333Z" fill="#F3F4F6"/>
</svg>
