<svg width="18" height="16" viewBox="0 0 18 16" fill="none" xmlns="http://www.w3.org/2000/svg">
<path d="M12.763 0.5C15.637 0.5 17.3333 2.15383 17.3333 4.98483H13.8074V5.01372C12.171 5.01372 10.8444 6.30707 10.8444 7.9025C10.8444 9.49793 12.171 10.7913 13.8074 10.7913H17.3333V11.0513C17.3333 13.8462 15.637 15.5 12.763 15.5H5.23704C2.36297 15.5 0.666672 13.8462 0.666672 11.0513V4.94872C0.666672 2.15383 2.36297 0.5 5.23704 0.5H12.763ZM16.7111 6.22701C17.0548 6.22701 17.3333 6.49861 17.3333 6.83365V8.94246C17.3293 9.27588 17.0531 9.54521 16.7111 9.54911H13.8741C13.0457 9.55998 12.3212 9.00698 12.1333 8.22027C12.0392 7.73191 12.1713 7.22797 12.4942 6.84351C12.8171 6.45906 13.2978 6.2334 13.8074 6.22701H16.7111ZM14.2074 7.20197H13.9333C13.7651 7.20004 13.603 7.26387 13.4833 7.3792C13.3636 7.49453 13.2963 7.65177 13.2963 7.81584C13.2963 8.16005 13.5803 8.44019 13.9333 8.44415H14.2074C14.5592 8.44415 14.8444 8.16608 14.8444 7.82306C14.8444 7.48004 14.5592 7.20197 14.2074 7.20197ZM9.31852 3.74266H4.61482C4.26587 3.74263 3.98184 4.01633 3.97778 4.35652C3.97778 4.70073 4.2618 4.98088 4.61482 4.98483H9.31852C9.67035 4.98483 9.95556 4.70676 9.95556 4.36375C9.95556 4.02073 9.67035 3.74266 9.31852 3.74266Z" fill="#F3F4F6"/>
</svg>
