<svg width="40" height="40" viewBox="0 0 40 40" fill="none" xmlns="http://www.w3.org/2000/svg">
<rect width="40" height="40" rx="20" fill="#03A9F4" fill-opacity="0.2"/>
<path d="M26.154 14.5992C26.0321 14.5274 25.8821 14.5224 25.7557 14.5858C25.6295 14.6495 25.5441 14.7728 25.529 14.9133C25.514 15.05 25.4907 15.1867 25.4615 15.33C24.6457 19.0325 23.0073 20.8333 20.4515 20.8333H16.7015C16.5038 20.8337 16.3336 20.9729 16.294 21.1666L15.0441 27.0258L14.8207 28.5175C14.6923 29.1958 15.1381 29.8498 15.8164 29.9782C15.8912 29.9923 15.9671 29.9996 16.0432 30H18.5515C19.1265 30.0017 19.6277 29.6093 19.764 29.0508L20.7773 25H22.9515C25.5173 25 27.2907 22.9542 27.9448 19.2392C28.3766 17.4702 27.6622 15.6193 26.154 14.5992Z" fill="#03A9F4"/>
<path d="M25.3681 11.485C24.5448 10.5511 23.3632 10.0112 22.1181 10H15.2182C14.1856 9.99448 13.3064 10.75 13.1565 11.7717L11.0141 26.0641C10.9114 26.7468 11.3816 27.3834 12.0643 27.486C12.1263 27.4954 12.1889 27.5 12.2516 27.5H15.4515C15.6493 27.4996 15.8195 27.3603 15.859 27.1666L17.0382 21.6667H20.4549C23.4199 21.6667 25.379 19.5942 26.279 15.5C26.3152 15.3368 26.343 15.1719 26.3623 15.0058C26.5713 13.7427 26.2068 12.4522 25.3681 11.485Z" fill="#283593"/>
</svg>
